Coordinates
version=1
nRows=9
nColumns=24
inDegrees=yes

Units are S.I. units (second, meters, Newtons, ...)
Angles are in degrees.

endheader
time	pelvis_tilt	pelvis_list	pelvis_rotation	pelvis_tx	pelvis_ty	pelvis_tz	hip_flexion_r	hip_adduction_r	hip_rotation_r	knee_angle_r	ankle_angle_r	subtalar_angle_r	mtp_angle_r	hip_flexion_l	hip_adduction_l	hip_rotation_l	knee_angle_l	ankle_angle_l	subtalar_angle_l	mtp_angle_l	lumbar_extension	lumbar_bending	lumbar_rotation
      4.83000000	     -3.02448117	      8.91056315	     -4.37416891	      0.51637063	      1.01738816	     -0.25766017	     12.36424639	    -13.52018954	     -4.33325941	    -65.65299142	     -7.84596309	     -0.64685906	      0.00000000	     15.94788291	     12.00160059	     -5.26243043	    -15.24259685	      9.28662030	    -10.01159746	      0.00000000	     -9.15239715	    -11.36849947	      1.89891995
      4.83500000	     -2.99448878	      8.83558634	     -4.23555759	      0.52239805	      1.01821250	     -0.25823025	     13.03917359	    -13.42203020	     -4.38382989	    -66.17008594	     -6.35648088	     -0.25777332	      0.00000000	     15.36112343	     12.05128918	     -4.98449636	    -14.94182103	      9.51954225	     -9.95104299	      0.00000000	     -9.20297760	    -11.21662552	      1.59100714
      4.84000000	     -2.94139946	      8.80370607	     -4.11753920	      0.52848352	      1.01903607	     -0.25893939	     13.69375887	    -13.39796939	     -4.46579143	    -66.62226020	     -4.89265265	      0.05468255	      0.00000000	     14.71760956	     12.17294629	     -4.62055705	    -14.55346941	      9.56417489	    -10.21886931	      0.00000000	     -9.25727782	    -11.09239843	      1.32299025
      4.84500000	     -2.87202591	      8.76036688	     -3.98445330	      0.53459101	      1.01992736	     -0.25960847	     14.30603224	    -13.35354820	     -4.57358054	    -66.98435042	     -3.48217171	      0.30086132	      0.00000000	     14.01647919	     12.28609097	     -4.11907821	    -14.10275732	      9.51603387	    -10.53973253	      0.00000000	     -9.32687085	    -10.96670865	      1.05103493
      4.85000000	     -2.82969408	      8.63176674	     -3.86961712	      0.54059555	      1.02078801	     -0.26016565	     14.94053492	    -13.18363268	     -4.64916107	    -67.27545777	     -2.14313184	      0.54253276	      0.00000000	     13.36872399	     12.28004804	     -3.73215304	    -13.70945976	      9.61849905	    -10.67334685	      0.00000000	     -9.38070807	    -10.74843637	      0.78648479
      4.85500000	     -2.73771473	      8.57668323	     -3.67649091	      0.54675191	      1.02169491	     -0.26097556	     15.47765726	    -13.15276437	     -4.85788886	    -67.48910375	     -0.82548343	      0.72797682	      0.00000000	     12.61202765	     12.39666135	     -3.15264270	    -13.21368698	      9.49333624	    -11.10639618	      0.00000000	     -9.47264188	    -10.58841946	      0.45130087
      4.86000000	     -2.65986828	      8.45946736	     -3.51214690	      0.55281253	      1.02257537	     -0.26167065	     16.03067123	    -13.02302194	     -5.02600062	    -67.63882721	      0.39567788	      0.88572984	      0.00000000	     11.88292225	     12.41992173	     -2.63388823	    -12.74785783	      9.48064374	    -11.39453889	      0.00000000	     -9.56107014	    -10.36801287	      0.13857877
      4.86500000	     -2.58988734	      8.32608326	     -3.33490459	      0.55887386	      1.02345145	     -0.26235881	     16.57139745	    -12.87219392	     -5.21626277	    -67.71464417	      1.54954575	      1.00262884	      0.00000000	     11.15441584	     12.41847116	     -2.11940010	    -12.27181895	      9.44060524	    -11.68079828	      0.00000000	     -9.63881749	    -10.12890499	     -0.17462424
      4.87000000	     -2.54549017	      8.16298727	     -3.16342808	      0.56491763	      1.02428237	     -0.26302515	     17.12741710	    -12.67892004	     -5.40263633	    -67.72451099	      2.63570972	      1.11828650	      0.00000000	     10.46257658	     12.37081684	     -1.70243923	    -11.81014871	      9.44162679	    -11.90307606	      0.00000000	     -9.68136184	     -9.85081819	     -0.48649794
